<?xml version="1.0" encoding="UTF-8" standalone="no"?>
<svg width="58px" height="58px" viewBox="0 0 58 58" version="1.1" xmlns="http://www.w3.org/2000/svg" xmlns:xlink="http://www.w3.org/1999/xlink" xmlns:sketch="http://www.bohemiancoding.com/sketch/ns">
    <!-- Generator: Sketch 3.4.2 (15857) - http://www.bohemiancoding.com/sketch -->
    <title>contacts</title>
    <desc>Created with Sketch.</desc>
    <defs></defs>
    <g id="Page-1" stroke="none" stroke-width="1" fill="none" fill-rule="evenodd" sketch:type="MSPage">
        <g id="contacts" sketch:type="MSLayerGroup">
            <path d="M0,12.998272 C0,5.819525 5.826819,0 12.998272,0 L45.001728,0 C52.180475,0 58,5.826819 58,12.998272 L58,45.001728 C58,52.180475 52.173181,58 45.001728,58 L12.998272,58 C5.819525,58 0,52.173181 0,45.001728 L0,12.998272 L0,12.998272 Z" id="general" fill="#AEAEAE" sketch:type="MSShapeGroup"></path>
            <path d="M44.8224805,34.5297067 C44.8224805,34.3964748 44.8041585,34.2623606 44.7468027,34.1353051 C44.6743113,33.9747209 44.5572098,33.8644297 44.4273627,33.7806083 C43.4945341,30.4621642 41.6041822,24.5505515 40.3479306,21.7765052 C41.5101824,21.2153431 43.8880587,20.2324272 46.2778842,20.2324272 C46.717612,20.2324272 47.1414077,20.2668381 47.5413052,20.3330129 C49.0827426,23.146764 50.0107915,30.7630388 50.3342145,34.5297067 L44.8224805,34.5297067 L44.8224805,34.5297067 Z M40.7908449,35.3388035 C38.540426,31.6127228 33.2589118,25.5122915 30.1370031,23.2076448 C29.9266985,23.0514724 29.6622245,23.0161792 29.4248352,23.1123532 C27.7216862,23.7926298 27.6659236,23.8085117 26.4279941,23.9461553 C26.1921979,23.9726252 25.9787069,24.113798 25.8464699,24.3326159 L25.5700467,24.8002509 C24.4683372,26.6796144 23.5060342,28.0701669 21.9781391,27.5160635 C21.6586991,27.3987135 21.4890215,27.1896013 21.4109539,26.8163756 C21.1162087,25.4169998 22.3151045,22.6394241 23.5036443,21.348575 C25.3406235,19.3527439 28.6839893,17.6172003 32.0616092,19.2900985 C35.3619582,20.9250565 37.8585291,21.8285626 38.7069172,22.1197316 C39.8540334,24.3784971 41.8885714,30.707452 42.8723829,34.1864802 L40.7908449,35.3388035 L40.7908449,35.3388035 Z M39.8412876,39.8528051 C39.6963049,39.9904486 39.3179159,40.2736766 38.9251879,39.9895663 C38.0712236,39.2228213 34.123232,34.722937 32.6590656,33.0359216 C32.3539645,32.6838718 31.850508,32.6741661 31.5326612,33.0112163 C31.215611,33.3491488 31.2052551,33.9076638 31.5103562,34.2588313 C32.019389,34.8446986 36.2007869,39.6542808 37.655394,41.1030671 C37.6060042,41.4577638 37.4020725,41.7418742 37.0332427,41.9465748 C36.363295,42.3171535 35.4408224,42.262449 35.0178233,41.8256956 C35.008264,41.8159899 34.9963149,41.8098136 34.9867556,41.8009903 C34.9803827,41.794814 34.9779929,41.786873 34.97162,41.781579 C33.7790971,40.7263121 30.1377997,36.4831859 29.4845808,35.6970296 C29.1874458,35.3379212 28.6823961,35.3149806 28.358973,35.6449721 C28.03555,35.9749636 28.0140415,36.5334787 28.3119731,36.8917048 C28.7405485,37.407868 31.9986772,41.2327696 33.5895043,42.7927295 C33.4955045,43.0415467 33.3369794,43.2224244 33.0987935,43.3238923 C32.4965575,43.5806504 31.6457796,43.325657 31.028408,42.7018495 C31.0236284,42.6965555 31.0180521,42.6939085 31.0124759,42.6886146 C31.0092894,42.6859676 31.0076962,42.6806736 31.0053064,42.6780266 C30.554426,42.2580374 29.9872407,41.7639324 29.3897844,41.2442399 C28.2562105,40.2595594 26.971281,39.1434116 26.2941638,38.3387264 C25.9938424,37.9831473 25.4895893,37.9655007 25.1685561,38.2963745 C24.8467262,38.629013 24.8292008,39.1866458 25.1295222,39.5439895 C25.8910799,40.4466134 27.1696366,41.5583495 28.4059729,42.6330277 C28.7604637,42.940961 29.0926494,43.23213 29.4065132,43.5118287 C29.0185648,43.886819 28.413939,44.2353395 28.1016685,44.2353395 C27.5376697,44.2353395 26.7538069,43.9388765 26.1491811,43.4977114 C25.4664876,43.0018418 20.8158873,38.7701859 16.7157435,34.9673425 C16.1971514,34.4847078 15.7717624,33.9226635 15.3599158,33.3773834 C14.9966624,32.8973957 14.6541207,32.443878 14.2765283,32.0909458 C14.2502402,32.0662406 14.2175793,32.0582996 14.189698,32.038006 C15.1830688,28.3092784 16.4600321,23.0920596 16.8647093,19.5459743 C18.1472489,19.6139137 20.218431,19.8971417 21.9550374,20.1336062 C22.0753253,20.1494882 22.1900369,20.1653701 22.3071384,20.1812521 C20.9823785,21.6820958 19.3859751,24.966129 19.8583639,27.2169535 C20.0622957,28.1831051 20.637447,28.8845577 21.4794622,29.1916086 C24.2930833,30.2159941 25.9285205,27.4278304 26.9067558,25.7611086 L26.967298,25.657876 C27.9638552,25.5361144 28.3167528,25.4267054 29.5801738,24.9246595 C33.2135051,27.7737039 38.9419167,34.8226403 40.1296599,37.5587464 C40.5590319,38.5496033 40.2945579,39.4248749 39.8412876,39.8528051 L39.8412876,39.8528051 Z M11.5887713,35.4120369 L6.60678186,35.4120369 C6.74220531,28.9110276 7.73398286,20.5315372 8.06855842,17.8651351 C9.64026695,18.0883647 13.2401407,18.6407034 15.2906109,19.2750989 C14.7337816,24.2390889 12.2714648,33.0315099 11.5887713,35.4120369 L11.5887713,35.4120369 Z M48.6645232,19.0156938 C48.5466251,18.8339338 48.3705746,18.7077605 48.1722191,18.6654087 C47.5779492,18.5339415 46.9406624,18.4677667 46.2778842,18.4677667 C43.1257044,18.4677667 40.1089481,19.9315526 39.1713399,20.4309515 C38.3548162,20.1494882 35.8940926,19.2548053 32.7124384,17.6780811 C29.4877672,16.0819457 26.3236383,17.0101571 24.0477279,18.6327625 C23.5060342,18.5665877 22.8544084,18.4783547 22.1486133,18.3821807 C19.9738722,18.0857177 17.5258943,17.7557262 16.2776088,17.7663141 C13.6790719,16.8133975 7.73796591,16.0395938 7.48145797,16.0069476 C7.05686565,15.9469492 6.66493428,16.2822347 6.60200221,16.7542813 C6.58686665,16.8681019 5.06614106,28.3039844 5.00002256,36.2864262 C4.99842934,36.5220084 5.08127663,36.7487673 5.23103902,36.9155277 C5.38080141,37.0831704 5.58393658,37.1766974 5.79663104,37.1766974 L12.1694989,37.1766974 C12.5144303,37.1766974 12.8195314,36.9314096 12.9270735,36.5687719 C12.9677006,36.430246 13.2640389,35.4226249 13.6798686,33.9173695 C13.8280377,34.1000118 13.9809866,34.3020655 14.138715,34.5111777 C14.5736633,35.0855747 15.0659673,35.7367345 15.6921016,36.3190724 C19.0745012,39.4566388 24.4173543,44.3500424 25.2729118,44.9720853 C25.954012,45.4688372 27.0541283,46 28.1016685,46 C28.8688024,46 29.9832577,45.4035447 30.6826799,44.5944479 C31.6362203,45.2059028 32.757845,45.3611929 33.6747414,44.9694383 C34.2323673,44.7303268 34.666519,44.3094552 34.9413489,43.7597635 C35.8096521,44.0774024 36.8667516,44.0112276 37.7462073,43.5241813 C38.4257144,43.1483086 38.900493,42.5659706 39.1227468,41.8733414 C39.7257794,41.9086346 40.3503205,41.6915814 40.8768787,41.1948294 C41.7802327,40.3389691 42.3402484,38.6757765 41.5914365,36.8687642 L43.3662802,35.8858483 C43.5096697,36.1337831 43.7566183,36.2943672 44.0338381,36.2943672 L51.2033144,36.2943672 C51.4255682,36.2943672 51.637466,36.1920169 51.788025,36.0111392 C51.938584,35.8311438 52.0150584,35.588503 51.997533,35.3432152 C51.9616857,34.8305813 51.0830265,22.7488331 48.6645232,19.0156938 L48.6645232,19.0156938 Z" id="Fill-51" fill="#FFFFFF" sketch:type="MSShapeGroup"></path>
        </g>
    </g>
</svg>