<?xml version="1.0" encoding="UTF-8" standalone="no"?>
<svg width="58px" height="58px" viewBox="0 0 58 58" version="1.1" xmlns="http://www.w3.org/2000/svg" xmlns:xlink="http://www.w3.org/1999/xlink" xmlns:sketch="http://www.bohemiancoding.com/sketch/ns">
    <!-- Generator: Sketch 3.4.2 (15857) - http://www.bohemiancoding.com/sketch -->
    <title>money</title>
    <desc>Created with Sketch.</desc>
    <defs></defs>
    <g id="Page-1" stroke="none" stroke-width="1" fill="none" fill-rule="evenodd" sketch:type="MSPage">
        <g id="money" sketch:type="MSLayerGroup">
            <path d="M12.998272,0 L45.001728,0 C52.180475,0 58,5.826819 58,12.998272 L58,45.001728 C58,52.180475 52.173181,58 45.001728,58 L12.998272,58 C5.819525,58 0,52.173181 0,45.001728 L0,12.998272 C0,5.819525 5.826819,0 12.998272,0 Z" id="general" fill="#AFAFAF" sketch:type="MSShapeGroup"></path>
            <path d="M44.2226487,42.7419837 C41.3758561,42.426444 38.6018803,42.2717948 35.7675706,42.2717948 C31.5081308,42.2717948 27.7167994,42.6220093 24.0496034,42.9604343 C20.4184691,43.2960854 16.9891416,43.6130121 13.1659095,43.6130121 C10.531326,43.6130121 7.98065524,43.458363 5.38698789,43.1414362 L5.38698789,23.7312342 C7.98273572,24.0419195 10.5396479,24.1937947 13.1776989,24.1937947 C17.0633454,24.1937947 20.6840773,23.8595306 24.1855282,23.5363624 C27.821517,23.2014049 31.5802541,22.8539644 35.775199,22.8539644 C38.6060413,22.8539644 41.3758561,23.010694 44.2226487,23.3310882 L44.2226487,42.7419837 L44.2226487,42.7419837 Z M44.999362,22.0259326 C41.8814132,21.6500589 38.864021,21.4669765 35.775199,21.4669765 C31.5164527,21.4669765 27.7251213,21.8171909 24.0586188,22.1549225 C20.428178,22.4905736 16.999544,22.8068068 13.1776989,22.8068068 C10.3350672,22.8068068 7.58952465,22.6271919 4.78434165,22.2575596 C4.58530889,22.2298198 4.38627613,22.2908473 4.23648143,22.4233047 C4.08599325,22.5550685 4,22.7450858 4,22.9448121 L4,43.7524044 C4,44.1005384 4.25797975,44.3945798 4.60333973,44.4396569 C7.46608273,44.8162241 10.2671048,45 13.1659095,45 C17.052943,45 20.6743684,44.6650424 24.1772063,44.3411808 C27.8125016,44.0062232 31.5719322,43.6587827 35.7675706,43.6587827 C38.8029936,43.6587827 41.7676802,43.8390911 44.8329234,44.2094169 C45.0284887,44.2329957 45.2275215,44.1705812 45.3766227,44.0395109 C45.5243369,43.907747 45.6096366,43.7191167 45.6096366,43.5207774 L45.6096366,22.7145721 C45.6096366,22.3636642 45.3474959,22.0675423 44.999362,22.0259326 L44.999362,22.0259326 Z M47.7802727,18.9523675 C40.1116166,17.9440273 33.9735017,18.543206 28.0365001,19.1236605 C22.039858,19.7096629 15.8379416,20.3143896 7.90090343,19.3143713 C7.52364273,19.2727617 7.17481528,19.5355959 7.1262707,19.916324 C7.07841962,20.2963587 7.34749527,20.6431057 7.72752995,20.6909568 C15.8185238,21.7103929 22.0988049,21.0980377 28.1710379,20.5037134 C34.1350858,19.9211785 39.7759656,19.3712378 46.9966245,20.2505881 L46.9966245,40.7114335 C46.9966245,41.0949356 47.3073098,41.4049274 47.6901185,41.4049274 C48.0729271,41.4049274 48.3836124,41.0949356 48.3836124,40.7114335 L48.3836124,19.63962 C48.3836124,19.291486 48.1256327,18.9974446 47.7802727,18.9523675 L47.7802727,18.9523675 Z M51.9343014,15.511944 C43.4903191,14.4959754 37.3882659,15.1936303 31.4866325,15.8704804 C25.5357609,16.5521849 19.914299,17.1978278 12.0618671,16.2075184 C11.6852999,16.1666023 11.3350854,16.4280495 11.2872344,16.8087777 C11.2393833,17.1888124 11.5084589,17.5355593 11.8884936,17.5834104 C19.9066706,18.5931376 25.874186,17.9093526 31.6447491,17.2484528 C37.322384,16.597262 43.1886493,15.9252664 51.1575882,16.8184866 L51.1575882,37.9374577 C51.1575882,38.3209598 51.4682735,38.6309516 51.8510821,38.6309516 C52.2338908,38.6309516 52.5445761,38.3209598 52.5445761,37.9374577 L52.5445761,16.2005835 C52.5445761,15.8496756 52.2824354,15.5542471 51.9343014,15.511944 L51.9343014,15.511944 Z M29.3161568,39.021 C28.5819068,39.3435 27.7151568,39.5 26.6666568,39.5 C23.7021568,39.5 21.1249068,37.23025 20.3819068,34.25 L25.6666568,34.25 C25.8046568,34.25 25.9166568,34.138 25.9166568,34 C25.9166568,33.862 25.8046568,33.75 25.6666568,33.75 L20.2774068,33.75 C20.2059068,33.343 20.1666568,32.9255 20.1666568,32.5 C20.1666568,32.0745 20.2059068,31.657 20.2774068,31.25 L25.6666568,31.25 C25.8046568,31.25 25.9166568,31.138 25.9166568,31 C25.9166568,30.862 25.8046568,30.75 25.6666568,30.75 L20.3819068,30.75 C21.1249068,27.76975 23.7021568,25.5 26.6666568,25.5 C27.7146568,25.5 28.5814068,25.6565 29.3161568,25.979 C29.4426568,26.03425 29.5901568,25.977 29.6456568,25.8505 C29.7011568,25.724 29.6434068,25.5765 29.5171568,25.521 C28.7176568,25.1705 27.7854068,25 26.6666568,25 C23.4324068,25 20.6279068,27.49575 19.8696568,30.75 L17.4166568,30.75 C17.2786568,30.75 17.1666568,30.862 17.1666568,31 C17.1666568,31.138 17.2786568,31.25 17.4166568,31.25 L19.7706568,31.25 C19.7034068,31.65775 19.6666568,32.07525 19.6666568,32.5 C19.6666568,32.92475 19.7034068,33.34225 19.7706568,33.75 L17.4166568,33.75 C17.2786568,33.75 17.1666568,33.862 17.1666568,34 C17.1666568,34.138 17.2786568,34.25 17.4166568,34.25 L19.8696568,34.25 C20.6279068,37.50425 23.4324068,40 26.6666568,40 C27.7859068,40 28.7181568,39.8295 29.5171568,39.479 C29.6436568,39.4235 29.7011568,39.276 29.6456568,39.1495 C29.5899068,39.023 29.4426568,38.9655 29.3161568,39.021 M13.2373393,40.1469294 C11.4800257,40.1469294 9.76432166,40.0768865 7.99175114,39.9333332 C7.60478152,39.902126 7.27606539,40.187152 7.24485816,40.5685737 C7.21365094,40.9506889 7.49798345,41.2849529 7.88009862,41.3161602 C9.69011781,41.4624874 11.442577,41.5339173 13.2373393,41.5339173 C13.6208415,41.5339173 13.9308333,41.223232 13.9308333,40.8404233 C13.9308333,40.4569212 13.6208415,40.1469294 13.2373393,40.1469294 L13.2373393,40.1469294 Z M34.8792048,25.6279402 C34.8792048,26.0114423 35.1898901,26.3214341 35.5726988,26.3214341 C37.3459628,26.3214341 39.0630538,26.3907835 40.8217544,26.5322563 C40.8404788,26.5336433 40.8592031,26.5343368 40.8779275,26.5343368 C41.2357703,26.5343368 41.5388272,26.2590197 41.5679539,25.8963223 C41.5991612,25.5142072 41.3148286,25.1799431 40.9327135,25.1494294 C39.1372577,25.0051826 37.384105,24.9344462 35.5726988,24.9344462 C35.1898901,24.9344462 34.8792048,25.244438 34.8792048,25.6279402 L34.8792048,25.6279402 Z" id="Fill-50-Copy" fill="#FFFFFF" sketch:type="MSShapeGroup"></path>
        </g>
    </g>
</svg>