<?xml version="1.0" encoding="UTF-8" standalone="no"?>
<svg width="58px" height="58px" viewBox="0 0 58 58" version="1.1" xmlns="http://www.w3.org/2000/svg" xmlns:xlink="http://www.w3.org/1999/xlink" xmlns:sketch="http://www.bohemiancoding.com/sketch/ns">
    <!-- Generator: Sketch 3.4.2 (15857) - http://www.bohemiancoding.com/sketch -->
    <title>settings</title>
    <desc>Created with Sketch.</desc>
    <defs></defs>
    <g id="Page-1" stroke="none" stroke-width="1" fill="none" fill-rule="evenodd" sketch:type="MSPage">
        <g id="settings" sketch:type="MSLayerGroup">
            <path d="M0,12.998272 C0,5.819525 5.826819,0 12.998272,0 L45.001728,0 C52.180475,0 58,5.826819 58,12.998272 L58,45.001728 C58,52.180475 52.173181,58 45.001728,58 L12.998272,58 C5.819525,58 0,52.173181 0,45.001728 L0,12.998272 L0,12.998272 Z" id="general-path" fill="#AEAEAE" sketch:type="MSShapeGroup"></path>
            <path d="M43.967193,30.000034 C43.45259,37.81805 36.948231,44 29,44 C26.523904,44 24.187935,43.400044 22.129533,42.337571 L30.009338,30.000488 L43.967193,30.000034 L43.967193,30.000034 Z M43.967674,28.007295 C43.456655,20.185814 36.950715,14 29,14 C26.55249,14 24.241891,14.586183 22.200935,15.625816 L30.014221,27.986694 L43.967674,28.007295 L43.967674,28.007295 Z M20.232284,16.827882 C16.457139,19.551936 14,23.98902 14,29 C14,34.005041 16.451319,38.437547 20.218869,41.162426 L28.018127,28.991089 L20.232284,16.827882 L20.232284,16.827882 Z M46.383194,24.311081 C46.636942,25.254121 46.815996,26.227776 46.91362,27.225312 C48.435471,27.568586 51.350154,28.33776 51.295611,29.183478 C51.243724,29.988004 48.535966,30.378681 46.935078,30.53961 L46.935078,30.53961 C46.850433,31.538856 46.684158,32.514841 46.442945,33.460872 L46.442945,33.460872 C47.756294,34.304563 50.228543,36.022427 49.888268,36.797961 C49.56457,37.535713 46.889958,36.978 45.330109,36.581738 C44.911147,37.482604 44.419833,38.343015 43.863635,39.155503 C44.808847,40.396803 46.546837,42.859153 45.961491,43.471895 C45.404483,44.054973 43.0782,42.612976 41.74855,41.70726 C40.996148,42.462092 40.177144,43.150497 39.301099,43.762913 C39.962179,45.229863 40.977424,47.769678 40.306702,48.216826 C39.602053,48.686592 37.481063,46.550308 36.422106,45.403399 L36.422106,45.403399 C35.598692,45.776562 34.742196,46.089547 33.858231,46.336743 C33.784231,47.89606 33.532622,50.895677 32.690902,50.988751 C31.8896,51.077356 31.034674,48.478649 30.598192,46.93002 C30.071641,46.976346 29.538583,47 29,47 C28.541545,47 28.087093,46.982861 27.63725,46.949187 C27.035,48.388187 25.771202,51.125623 24.947717,50.92503 C24.164986,50.734364 24.249757,48.003688 24.369129,46.398709 L24.369129,46.398709 C23.404522,46.142633 22.471717,45.808471 21.577894,45.403399 L21.577894,45.403399 C20.518937,46.550308 18.397947,48.686592 17.693298,48.216826 C17.022576,47.769678 18.037821,45.229863 18.698901,43.762913 C17.921447,43.219419 17.188918,42.616078 16.507996,41.959572 L16.507996,41.959572 C15.637384,42.549847 12.616092,44.161406 11.919993,43.331828 C11.25394,42.538056 13.185894,40.248131 14.200596,39.248703 C13.685735,38.506629 13.225252,37.723974 12.824914,36.906504 C11.800082,37.163661 8.418173,37.642106 8.04827,36.625806 C7.694105,35.652745 10.289079,34.163015 11.585276,33.570112 C11.358369,32.703096 11.194497,31.810579 11.098849,30.897751 C10.050839,30.7898 6.703634,30.082432 6.703634,29 C6.703634,27.963697 9.656147,27.45135 11.075703,27.338053 C11.159408,26.423707 11.311495,25.52914 11.526805,24.659512 C10.576278,24.197633 7.678387,22.390438 8.04827,21.374194 C8.40245,20.401093 11.348124,20.927994 12.722106,21.306987 C13.111697,20.48409 13.56185,19.695461 14.06681,18.946854 C13.333137,18.190139 11.224302,15.497265 11.919993,14.668173 C12.586302,13.874096 15.178653,15.38052 16.338445,16.206053 L16.338445,16.206053 C17.037826,15.513864 17.793667,14.878613 18.598443,14.307824 C17.986768,13.021688 16.954412,10.208898 17.851817,9.690781 C18.788315,9.150094 21.070964,11.689673 21.69111,12.545765 C22.442462,12.211519 23.220946,11.927225 24.022345,11.697101 L24.022345,11.697101 C23.947142,10.64249 24.063385,7.230136 25.128277,7.042366 C26.148887,6.862405 27.1662,9.681388 27.524231,11.059628 C28.010937,11.020133 28.503117,11 29,11 C29.416581,11 29.829857,11.014152 30.239373,11.042 C30.527261,10.029455 31.805479,6.854359 32.871723,7.042366 C33.891473,7.222176 33.884159,10.214193 33.74954,11.633232 C34.631479,11.873868 35.486439,12.17989 36.30889,12.545765 C36.929036,11.689673 39.211685,9.150094 40.148183,9.690781 C41.045588,10.208898 40.013232,13.021688 39.401557,14.307824 C40.1754,14.856674 40.903997,15.465125 41.580658,16.126488 C42.966735,15.411349 45.695384,14.126092 46.197366,14.80921 C46.67471,15.4588 44.85198,17.498248 43.729044,18.65062 C44.296006,19.456028 44.798581,20.310029 45.229283,21.205141 C46.777628,21.007239 49.775927,20.734015 50.013774,21.546865 C50.240016,22.320057 47.832837,23.611966 46.383194,24.311081 L46.383194,24.311081 L46.383194,24.311081 Z" fill="#FFFFFF" sketch:type="MSShapeGroup"></path>
        </g>
    </g>
</svg>