<?xml version="1.0" encoding="UTF-8" standalone="no"?>
<svg width="58px" height="58px" viewBox="0 0 58 58" version="1.1" xmlns="http://www.w3.org/2000/svg" xmlns:xlink="http://www.w3.org/1999/xlink" xmlns:sketch="http://www.bohemiancoding.com/sketch/ns">
    <!-- Generator: Sketch 3.4.2 (15857) - http://www.bohemiancoding.com/sketch -->
    <title>tasks</title>
    <desc>Created with Sketch.</desc>
    <defs></defs>
    <g id="Page-1" stroke="none" stroke-width="1" fill="none" fill-rule="evenodd" sketch:type="MSPage">
        <g id="tasks" sketch:type="MSLayerGroup">
            <path d="M0,12.998272 C0,5.819525 5.826819,0 12.998272,0 L45.001728,0 C52.180475,0 58,5.826819 58,12.998272 L58,45.001728 C58,52.180475 52.173181,58 45.001728,58 L12.998272,58 C5.819525,58 0,52.173181 0,45.001728 L0,12.998272 L0,12.998272 Z" id="general" fill="#AEAEAE" sketch:type="MSShapeGroup"></path>
            <path d="M43.6666667,34.6666667 L37.8,34.6666667 C37.3952,34.6666667 37.0666667,35.0093667 37.0666667,35.4333333 C37.0666667,35.8573 37.3952,36.2 37.8,36.2 L43.6666667,36.2 C44.0714667,36.2 44.4,35.8573 44.4,35.4333333 C44.4,35.0093667 44.0714667,34.6666667 43.6666667,34.6666667 L43.6666667,34.6666667 Z M43.6666667,28.5333333 L37.8,28.5333333 C37.3952,28.5333333 37.0666667,28.8760333 37.0666667,29.3 C37.0666667,29.7239667 37.3952,30.0666667 37.8,30.0666667 L43.6666667,30.0666667 C44.0714667,30.0666667 44.4,29.7239667 44.4,29.3 C44.4,28.8760333 44.0714667,28.5333333 43.6666667,28.5333333 L43.6666667,28.5333333 Z M49.5333333,46.1666667 C49.5333333,47.4347333 48.5462667,48.4666667 47.3333333,48.4666667 L10.6666667,48.4666667 C9.45373333,48.4666667 8.46666667,47.4347333 8.46666667,46.1666667 L8.46666667,12.4333333 C8.46666667,11.1652667 9.45373333,10.1333333 10.6666667,10.1333333 L18.7333333,10.1333333 L18.7333333,10.9 C18.7333333,11.3239667 19.0618667,11.6666667 19.4666667,11.6666667 C19.8714667,11.6666667 20.2,11.3239667 20.2,10.9 L20.2,10.1333333 L39.2666667,10.1333333 L39.2666667,10.9 C39.2666667,11.3239667 39.5952,11.6666667 40,11.6666667 C40.4048,11.6666667 40.7333333,11.3239667 40.7333333,10.9 L40.7333333,10.1333333 L47.3333333,10.1333333 C48.5462667,10.1333333 49.5333333,11.1652667 49.5333333,12.4333333 L49.5333333,46.1666667 L49.5333333,46.1666667 Z M47.3333333,8.6 L40.7333333,8.6 L40.7333333,4.76666667 C40.7333333,4.3427 40.4048,4 40,4 C39.5952,4 39.2666667,4.3427 39.2666667,4.76666667 L39.2666667,8.6 L20.2,8.6 L20.2,4.76666667 C20.2,4.3427 19.8714667,4 19.4666667,4 C19.0618667,4 18.7333333,4.3427 18.7333333,4.76666667 L18.7333333,8.6 L10.6666667,8.6 C8.64486667,8.6 7,10.3196333 7,12.4333333 L7,46.1666667 C7,48.2803667 8.64486667,50 10.6666667,50 L47.3333333,50 C49.3551333,50 51,48.2803667 51,46.1666667 L51,12.4333333 C51,10.3196333 49.3551333,8.6 47.3333333,8.6 L47.3333333,8.6 Z M43.6666667,22.4 L37.8,22.4 C37.3952,22.4 37.0666667,22.7427 37.0666667,23.1666667 C37.0666667,23.5906333 37.3952,23.9333333 37.8,23.9333333 L43.6666667,23.9333333 C44.0714667,23.9333333 44.4,23.5906333 44.4,23.1666667 C44.4,22.7427 44.0714667,22.4 43.6666667,22.4 L43.6666667,22.4 Z M31.9333333,22.4 L26.0666667,22.4 C25.6618667,22.4 25.3333333,22.7427 25.3333333,23.1666667 C25.3333333,23.5906333 25.6618667,23.9333333 26.0666667,23.9333333 L31.9333333,23.9333333 C32.3381333,23.9333333 32.6666667,23.5906333 32.6666667,23.1666667 C32.6666667,22.7427 32.3381333,22.4 31.9333333,22.4 L31.9333333,22.4 Z M43.6666667,16.2666667 L14.3333333,16.2666667 C13.9285333,16.2666667 13.6,16.6093667 13.6,17.0333333 C13.6,17.4573 13.9285333,17.8 14.3333333,17.8 L43.6666667,17.8 C44.0714667,17.8 44.4,17.4573 44.4,17.0333333 C44.4,16.6093667 44.0714667,16.2666667 43.6666667,16.2666667 L43.6666667,16.2666667 Z M43.6666667,40.8 L37.8,40.8 C37.3952,40.8 37.0666667,41.1427 37.0666667,41.5666667 C37.0666667,41.9906333 37.3952,42.3333333 37.8,42.3333333 L43.6666667,42.3333333 C44.0714667,42.3333333 44.4,41.9906333 44.4,41.5666667 C44.4,41.1427 44.0714667,40.8 43.6666667,40.8 L43.6666667,40.8 Z M20.2,22.4 L14.3333333,22.4 C13.9285333,22.4 13.6,22.7427 13.6,23.1666667 C13.6,23.5906333 13.9285333,23.9333333 14.3333333,23.9333333 L20.2,23.9333333 C20.6048,23.9333333 20.9333333,23.5906333 20.9333333,23.1666667 C20.9333333,22.7427 20.6048,22.4 20.2,22.4 L20.2,22.4 Z M20.2,40.8 L14.3333333,40.8 C13.9285333,40.8 13.6,41.1427 13.6,41.5666667 C13.6,41.9906333 13.9285333,42.3333333 14.3333333,42.3333333 L20.2,42.3333333 C20.6048,42.3333333 20.9333333,41.9906333 20.9333333,41.5666667 C20.9333333,41.1427 20.6048,40.8 20.2,40.8 L20.2,40.8 Z M20.2,34.6666667 L14.3333333,34.6666667 C13.9285333,34.6666667 13.6,35.0093667 13.6,35.4333333 C13.6,35.8573 13.9285333,36.2 14.3333333,36.2 L20.2,36.2 C20.6048,36.2 20.9333333,35.8573 20.9333333,35.4333333 C20.9333333,35.0093667 20.6048,34.6666667 20.2,34.6666667 L20.2,34.6666667 Z M20.2,28.5333333 L14.3333333,28.5333333 C13.9285333,28.5333333 13.6,28.8760333 13.6,29.3 C13.6,29.7239667 13.9285333,30.0666667 14.3333333,30.0666667 L20.2,30.0666667 C20.6048,30.0666667 20.9333333,29.7239667 20.9333333,29.3 C20.9333333,28.8760333 20.6048,28.5333333 20.2,28.5333333 L20.2,28.5333333 Z M31.9333333,34.6666667 L26.0666667,34.6666667 C25.6618667,34.6666667 25.3333333,35.0093667 25.3333333,35.4333333 C25.3333333,35.8573 25.6618667,36.2 26.0666667,36.2 L31.9333333,36.2 C32.3381333,36.2 32.6666667,35.8573 32.6666667,35.4333333 C32.6666667,35.0093667 32.3381333,34.6666667 31.9333333,34.6666667 L31.9333333,34.6666667 Z M31.9333333,28.5333333 L26.0666667,28.5333333 C25.6618667,28.5333333 25.3333333,28.8760333 25.3333333,29.3 C25.3333333,29.7239667 25.6618667,30.0666667 26.0666667,30.0666667 L31.9333333,30.0666667 C32.3381333,30.0666667 32.6666667,29.7239667 32.6666667,29.3 C32.6666667,28.8760333 32.3381333,28.5333333 31.9333333,28.5333333 L31.9333333,28.5333333 Z M31.9333333,40.8 L26.0666667,40.8 C25.6618667,40.8 25.3333333,41.1427 25.3333333,41.5666667 C25.3333333,41.9906333 25.6618667,42.3333333 26.0666667,42.3333333 L31.9333333,42.3333333 C32.3381333,42.3333333 32.6666667,41.9906333 32.6666667,41.5666667 C32.6666667,41.1427 32.3381333,40.8 31.9333333,40.8 L31.9333333,40.8 Z" id="general" fill="#FFFFFF" sketch:type="MSShapeGroup"></path>
        </g>
    </g>
</svg>